<svg style="display:none;" xmlns="http://www.w3.org/2000/svg"><symbol viewBox="0 0 24 24" id="shape-search"><title>search</title><path d="M23.822 20.88l-6.353-6.354a9.407 9.407 0 0 0 1.466-5.06C18.936 4.25 14.69 0 9.468 0 4.248 0 0 4.248 0 9.468s4.247 9.47 9.468 9.47a9.41 9.41 0 0 0 4.84-1.334L20.702 24l3.12-3.12zM3.528 9.468a5.947 5.947 0 0 1 5.94-5.938 5.946 5.946 0 0 1 5.94 5.938 5.946 5.946 0 0 1-5.94 5.94 5.946 5.946 0 0 1-5.94-5.94z"/></symbol><symbol viewBox="0 0 24 24" id="shape-triangle"><title>triangle</title><path d="M24 22H0L12 2z"/></symbol></svg>